<svg width="173" height="48" viewBox="0 0 173 48" fill="none" xmlns="http://www.w3.org/2000/svg">
<g clip-path="url(#clip0_424_75207)">
<path d="M12.9184 36.9892H21.6909V9.87024H0V36.9892H8.77247V16.6443H12.9184V36.9892Z" fill="#FFB800"/>
<path d="M96.1079 41.2689H76.9995V47.5H96.1079V41.2689Z" fill="#FFB800"/>
<path d="M40.7445 9.27551C37.1735 9.27551 35.464 11.5006 34.7781 14.7583H34.1408L33.6678 9.92797H26.9105V47.4984H35.5857V33.1276H36.1286C36.7704 35.6979 38.2594 37.4636 41.3224 37.4636C46.9376 37.4636 48.314 30.3018 48.314 22.1529C48.314 14.6351 45.66 9.27551 40.746 9.27551M37.3514 30.6394C35.7058 30.6394 35.0275 28.498 35.0275 23.0198C35.0275 17.5415 35.9796 16.0419 37.3514 16.0419C38.5453 16.0419 39.5826 17.5978 39.5826 22.8662C39.5826 29.1611 38.6563 30.6394 37.3514 30.6394Z" fill="#FFB800"/>
<path d="M137.198 12.1637C133.468 12.1637 131.843 14.1256 131.113 16.7507L130.548 16.6822C130.778 12.3933 132.43 9.28312 137.196 8.73864C139.864 8.43447 145.16 8.03752 145.16 8.03752V0.5C145.16 0.5 142.778 0.722049 137.196 1.51139C126.594 3.01098 124.183 10.5591 124.183 20.8829C124.183 32.0173 127.955 37.4636 135.169 37.4636C142.382 37.4636 145.929 32.2835 145.929 23.8152C145.929 19.067 145.188 12.1637 137.198 12.1637ZM135.087 30.758C133.391 30.758 132.918 29.114 132.918 24.3703C132.918 19.6267 133.656 17.9811 135.087 17.9811C136.518 17.9811 137.198 19.2677 137.198 24.3703C137.198 29.4729 136.781 30.758 135.087 30.758Z" fill="#FFB800"/>
<path d="M162.187 9.87024H157.08C151.771 9.87024 148.446 12.7873 148.446 18.9378C148.446 23.2145 150.595 25.5019 153.315 26.6228L146.971 36.9907H155.707L160.184 27.4912C160.422 27.4699 160.653 27.4456 160.878 27.4167V36.9907H169.145V9.87024H162.189H162.187ZM160.333 24.8282C157.876 24.8282 157.121 23.0548 157.121 19.718C157.121 16.6108 157.958 14.915 159.856 14.915C160.464 14.915 160.857 14.9819 160.857 14.9819L160.878 14.9013V24.8282H160.333Z" fill="#FFB800"/>
<path d="M86.8273 30.5801C84.9506 30.5801 84.7726 27.549 84.7726 23.7209C84.7726 18.6533 84.8091 16.0997 86.6859 16.0997C88.5627 16.0997 88.7102 18.5301 88.7102 22.9148H96.9291C97.2333 16.0997 95.907 9.21619 86.5521 9.21619C78.0822 9.21619 76.175 15.3271 76.175 23.2966C76.175 34.7397 80.7833 37.4636 86.8228 37.4636C92.4835 37.4636 96.9291 34.1892 96.9291 26.6334H88.7102C88.7102 29.3086 88.2357 30.5801 86.8273 30.5801Z" fill="#FFB800"/>
<path d="M111.011 30.8904C109.134 30.8904 108.409 28.8676 108.409 23.7225C108.409 18.5773 108.756 15.7926 110.631 15.7926C112.506 15.7926 112.991 18.5317 112.991 22.9164L121.21 25.8654C121.995 16.2808 120.153 9.21777 110.343 9.21777C101.874 9.21777 99.9664 15.3287 99.9664 23.2981C99.9664 34.7413 104.576 37.4652 111.08 37.4652C117.169 37.4652 120.702 34.5923 121.212 28.0068H113.008C112.874 29.9034 112.203 30.8904 111.013 30.8904" fill="#FFB800"/>
<path d="M62.3959 9.21619C56.3154 9.21619 51.552 12.6671 51.552 23.0578C51.552 33.4485 54.9329 37.4636 62.3959 37.4636C69.8589 37.4636 73.2961 33.6355 73.2961 23.0578C73.2961 12.48 68.5175 9.21619 62.3959 9.21619ZM62.3959 30.758C60.2271 30.758 60.1891 27.4045 60.1891 23.0578C60.1891 19.0229 60.3747 16.2777 62.3959 16.2777C64.4172 16.2777 64.6757 19.1491 64.6757 23.0578C64.6757 26.9665 64.5632 30.758 62.3959 30.758Z" fill="#FFB800"/>
<path d="M104.575 22.1345H119.925L121.21 23.663V25.8637H104.575V22.1345Z" fill="#FFB800"/>
</g>
<defs>
<clipPath id="clip0_424_75207">
<rect width="173" height="48" fill="white"/>
</clipPath>
</defs>
</svg>
