<?xml version="1.0" encoding="iso-8859-1"?>
<!-- Uploaded to: SVG Repo, www.svgrepo.com, Generator: SVG Repo Mixer Tools -->
<svg fill="#062120" height="800px" width="800px" version="1.1" id="Layer_1" xmlns="http://www.w3.org/2000/svg" xmlns:xlink="http://www.w3.org/1999/xlink" 
	 viewBox="0 0 496 496" xml:space="preserve">
<g>
	<g>
		<g>
			<path d="M248,152c-52.936,0-96,43.064-96,96c0,52.936,43.064,96,96,96c52.936,0,96-43.064,96-96C344,195.064,300.936,152,248,152
				z M248,328c-44.112,0-80-35.888-80-80s35.888-80,80-80s80,35.888,80,80S292.112,328,248,328z"/>
			<path d="M248,216c-17.648,0-32,14.352-32,32s14.352,32,32,32s32-14.352,32-32S265.648,216,248,216z M248,264
				c-8.824,0-16-7.176-16-16c0-8.824,7.176-16,16-16c8.824,0,16,7.176,16,16C264,256.824,256.824,264,248,264z"/>
			<circle cx="248" cy="192" r="8"/>
			<circle cx="208.393" cy="208.4" r="8"/>
			<circle cx="192" cy="248" r="8"/>
			<circle cx="208.395" cy="287.602" r="8"/>
			<circle cx="248" cy="304" r="8"/>
			<circle cx="287.598" cy="287.6" r="8"/>
			<circle cx="304" cy="248" r="8"/>
			<circle cx="287.595" cy="208.398" r="8"/>
			<path d="M496,248c0-21.704-2.824-42.752-8.088-62.832l0.024-0.176l-0.072-0.008c-11.176-42.496-33.376-80.56-63.344-110.96
				l-0.232-0.552l-0.208,0.088c-30.112-30.392-68.024-53.016-110.44-64.672l-0.24-0.184L313.336,8.8C292.504,3.104,270.608,0,248,0
				c-21.704,0-42.752,2.824-62.832,8.088l-0.176-0.024l-0.008,0.072C142.48,19.312,104.416,41.52,74.008,71.488l-0.544,0.232
				l0.088,0.208C43.16,102.04,20.544,139.944,8.888,182.352l-0.184,0.24l0.096,0.072C3.104,203.496,0,225.384,0,248
				c0,21.704,2.824,42.752,8.088,62.832l-0.024,0.176l0.072,0.008c11.176,42.496,33.376,80.56,63.344,110.96l0.232,0.552
				l0.208-0.088c30.112,30.392,68.024,53.016,110.44,64.672l0.24,0.184l0.072-0.096c20.824,5.696,42.72,8.8,65.328,8.8
				c21.704,0,42.752-2.824,62.832-8.088l0.176,0.024l0.008-0.072c42.504-11.176,80.568-33.376,110.976-63.352l0.544-0.232
				l-0.088-0.208c30.392-30.112,53.008-68.016,64.664-110.424l0.184-0.24l-0.096-0.072C492.896,292.504,496,270.616,496,248z
				 M472.552,306.376l-7.968,10.528c-14.088,18.608-39.96,23.84-60.16,12.168l-8,13.856c9.752,5.624,20.48,8.336,31.096,8.336
				c11.384,0,22.624-3.168,32.44-9.112c-11.48,25.744-27.48,49.04-47.048,68.832l-11.8,4.976
				c-21.512,9.064-46.52,0.672-58.184-19.536l-13.856,8c11.432,19.808,32.384,31.168,54.104,31.168c0.392,0,0.784-0.048,1.176-0.056
				c-22.264,16.232-47.512,28.584-74.76,36.104l-12.968-1.624C273.464,467.128,256,447.344,256,424h-16
				c0,23.344,13,44.024,32.464,54.704c-8.04,0.84-16.2,1.296-24.464,1.296c-20.152,0-39.704-2.592-58.36-7.448l-10.544-7.968
				c-18.608-14.096-23.832-39.952-12.168-60.168l-13.856-8c-11.648,20.176-10.744,44.536,0.72,63.512
				c-25.72-11.48-48.992-27.472-68.768-47.016l-4.984-11.8c-9.072-21.504-0.672-46.512,19.536-58.184l-8-13.856
				C71.432,340.704,60.04,362.2,60.44,384.32c-16.224-22.256-28.568-47.496-36.08-74.736l1.624-12.96
				C28.88,273.472,48.664,256,72,256v-16c-23.344,0-44.024,13-54.696,32.472C16.456,264.424,16,256.264,16,248
				c0-20.16,2.592-39.712,7.448-58.376l7.968-10.528c14.088-18.608,39.96-23.848,60.16-12.168l8-13.856
				c-20.184-11.64-44.544-10.744-63.512,0.72c11.48-25.72,27.472-48.992,47.016-68.768l11.8-4.976
				c21.504-9.056,46.52-0.672,58.184,19.536l13.856-8c-11.632-20.152-33.12-31.552-55.248-31.136
				c22.256-16.224,47.496-28.568,74.728-36.08l12.968,1.624C222.536,28.872,240,48.656,240,72h16c0-23.344-13-44.024-32.464-54.704
				C231.576,16.456,239.736,16,248,16c20.152,0,39.704,2.592,58.36,7.448l10.544,7.968c18.608,14.096,23.832,39.952,12.168,60.168
				l13.856,8c11.648-20.176,10.744-44.536-0.72-63.512c25.72,11.48,48.992,27.472,68.768,47.016l4.984,11.8
				c9.072,21.504,0.672,46.512-19.536,58.184l8,13.856c20.144-11.632,31.536-33.128,31.136-55.248
				c16.224,22.256,28.568,47.496,36.08,74.736l-1.624,12.96C467.12,222.528,447.336,240,424,240v16
				c23.344,0,44.024-13,54.696-32.472C479.544,231.576,480,239.736,480,248C480,268.16,477.408,287.712,472.552,306.376z"/>
		</g>
	</g>
</g>
</svg>